<svg xmlns="http://www.w3.org/2000/svg" viewBox="0 0 200 340"><defs><style>.be3529b2-9eee-4f27-bef0-a57879085cd4{fill:#534741;stroke:#736357;}.be3529b2-9eee-4f27-bef0-a57879085cd4,.e4c1e703-84cc-417d-b0e5-748486b74af3{stroke-miterlimit:10;}.a5b60361-bd5b-4bc8-80c9-5f380b8ceb46{font-size:22px;fill:#c69c6d;font-family:Iansui0.91-Regular, "Iansui 0.91";}.a8e816f4-6b76-4056-8a14-7ee091a960a0{fill:#c7b299;}.e4c1e703-84cc-417d-b0e5-748486b74af3{fill:none;stroke:#fbb03b;}</style></defs><title>02</title><g id="f1521add-bc54-46da-a186-95407181540a" data-name="圖層 2"><rect class="be3529b2-9eee-4f27-bef0-a57879085cd4" width="200" height="340" rx="8"/><text class="a5b60361-bd5b-4bc8-80c9-5f380b8ceb46" transform="translate(89 137.33)">平<tspan x="0" y="26.4">民</tspan><tspan x="0" y="52.8">百</tspan><tspan x="0" y="79.2">姓</tspan></text><path class="a8e816f4-6b76-4056-8a14-7ee091a960a0" d="M82.37,304.9h0l-.11-.2c-.65-1.16-.74-2.27-.91-2.28s-.42,1.25.32,2.6l.12.22h0a8.17,8.17,0,0,0,5.3,3.16A7.86,7.86,0,0,1,82.37,304.9Zm-8.91,13.69,0,0,0,0-.16.16c-.21.21-.44.42-.66.62a21.53,21.53,0,0,1-2.92,2.18A32.68,32.68,0,0,1,63,324.76a32.6,32.6,0,0,0,6.79-2.86,21.32,21.32,0,0,0,3.08-2.08c.24-.2.48-.4.71-.61l.13-.13a2.67,2.67,0,0,0,.48.08,5,5,0,0,0,1.93-.19,11.48,11.48,0,0,0,5.57-4.89,1.76,1.76,0,0,1,.25-.34l.34-.31.68-.62c.46-.41.91-.83,1.35-1.25.9-.85,1.77-1.71,2.62-2.6-.89.85-1.8,1.67-2.73,2.47l-1.4,1.19-.71.59-.36.29c-.19.16-.2.26-.32.39-1.41,1.94-3.21,3.78-5.48,4.43a4.71,4.71,0,0,1-1.7.25,2.7,2.7,0,0,1-.41-.05l-.09,0h0l-.3.07h0Zm10.11-19.22c-.17-.09-.86,1.26-.67,3.05a2.91,2.91,0,0,0,0,.31h0a7.17,7.17,0,0,0,.35,1.2h.58a5.75,5.75,0,0,1-.27-1.31h0a2.4,2.4,0,0,1,0-.28C83.39,300.74,83.74,299.43,83.57,299.37Zm2.56-3a10.42,10.42,0,0,1,1.07.31,12.8,12.8,0,0,1,2.9.2A12,12,0,0,1,94,298.2a8.29,8.29,0,0,1,3.91,4.85h0A9.05,9.05,0,0,0,94.14,298a15.17,15.17,0,0,0-3.86-1.8c-2.07-.64-3-.77-2.94-.79-.79.1-1.48.16-2.11.19C85.53,295.81,85.83,296.08,86.13,296.36Zm-7-.87c-2.16.56-2.47,1.21-2.48,1.2h0s.54.37,2.69.3a18.6,18.6,0,0,0,3.2-.63,9.57,9.57,0,0,1,1-.15,10.22,10.22,0,0,0-1.25-.73A9.3,9.3,0,0,0,79.11,295.49Zm14.39,6a5.64,5.64,0,0,0,.8-.1,2,2,0,0,0,.42-.13A.62.62,0,0,0,95,301a.4.4,0,0,0,0-.45,1.56,1.56,0,0,0-.79-.46,7.2,7.2,0,0,0-.77-.19,9.07,9.07,0,0,0-4,.24,17.26,17.26,0,0,1-3.31-3.26h0a13,13,0,0,0-1.47-1.29,15.92,15.92,0,0,0-7.44-2.72,13.24,13.24,0,0,0-6.42.73A10.69,10.69,0,0,0,67.07,296a3.69,3.69,0,0,0-1,1.26,12.61,12.61,0,0,1,4.81-3.17,13.12,13.12,0,0,1,6.18-.56,15.81,15.81,0,0,1,7.11,2.64,12.59,12.59,0,0,1,1.39,1.23h0c.7.7,1.33,1.5,2.08,2.23a5.8,5.8,0,0,0,1,.83,6,6,0,0,0-1.26.76,4.65,4.65,0,0,0-1.71,2.61,3.38,3.38,0,0,0,1.05,2.89A8.07,8.07,0,0,0,88.3,308l.21-.23A8.76,8.76,0,0,1,87,306.47a3,3,0,0,1-.92-2.6,4.35,4.35,0,0,1,1.59-2.35,5.88,5.88,0,0,1,1.48-.8,5.12,5.12,0,0,0,1.24.5A10.57,10.57,0,0,0,93.5,301.48Zm-.2-1.06a3.57,3.57,0,0,1,1.13.38.84.84,0,0,1-.24.06,4.06,4.06,0,0,1-.71.08,9.87,9.87,0,0,1-2.93-.29,2.62,2.62,0,0,1-.56-.18A8.78,8.78,0,0,1,93.3,300.42Zm-1.23,9.31a22.31,22.31,0,0,0-2.3-1.23l-.16.22c.78.42,1.57.79,2.31,1.21a8.91,8.91,0,0,1,3.46,4.81,9.3,9.3,0,0,1-.45,5.93,18.28,18.28,0,0,1-3.21,5.14A18.47,18.47,0,0,0,95,320.7a9.4,9.4,0,0,0,.53-6A9.1,9.1,0,0,0,92.07,309.73Zm7.27-4.5a13.07,13.07,0,0,0-1.19-5.08h0c-.13-.24-.25-.49-.4-.73a10.28,10.28,0,0,0-4.52-4.05c-1.44-.65-2.42-.73-2.44-.61s.87.4,2.15,1.16a11.45,11.45,0,0,1,4.06,4c.14.21.25.44.37.66h0a12.43,12.43,0,0,1,1.33,4.73c.11,1.65.1,3.38.15,5.07l.24,10.19.2-10.19C99.3,308.63,99.39,307,99.34,305.23ZM68.54,291.4l.61-.13h0a18.18,18.18,0,0,1,7.94,0,20.44,20.44,0,0,1,7.32,3.3,20.83,20.83,0,0,0-7.24-3.63,18.83,18.83,0,0,0-8.15-.3h0l-.63.14c-3.7.84-6.22,2.74-6.08,2.89A44.52,44.52,0,0,1,68.54,291.4Zm26.89,12.22a3.9,3.9,0,0,0-2.77.44,12.59,12.59,0,0,0-3.38,3.26c-.89,1-1.7,1.92-2.42,2.68a40.34,40.34,0,0,1-4.22,4,20.61,20.61,0,0,1-1.44,1.93c-1.47,1.72-4,4-6.88,4,0,0-7.58,5.45-14.42,6,0,0,9.89,1.48,16.36-3.05a23,23,0,0,1,4.49-5c1-.76,2.07-1.59,3.34-2.48l.08-.1c.29-.37,1.4-1.75,3.56-4.56.63-.84,1.35-1.81,2.16-2.92a11.5,11.5,0,0,1,3-3.36,3.25,3.25,0,0,1,4.74,1.15,5.48,5.48,0,0,1,.64,3.15c0,1.15,0,2.36,0,3.61h0v0c0-1.25,0-2.46,0-3.61a5.81,5.81,0,0,0-.57-3.24A3.65,3.65,0,0,0,95.43,303.62Zm-2.71,11.55c-.1-.06-.43.74-1.41,1.52a2.84,2.84,0,0,1-2,.6,2.48,2.48,0,0,1-2-1.26,3,3,0,0,1-.23-.56h0a2.21,2.21,0,0,1,.29-1.85,3.75,3.75,0,0,1,5.47-.62,6.24,6.24,0,0,1,1.87,3.79,8.45,8.45,0,0,1-.58,4.3c1.22-2.62,1.13-6.13-1.07-8.33a4.09,4.09,0,0,0-2-1.09,4.49,4.49,0,0,0-4.16,1.62,2.84,2.84,0,0,0-.45,2.35h0a3.19,3.19,0,0,0,.29.72,3,3,0,0,0,2.59,1.55,3.22,3.22,0,0,0,2.29-.86C92.63,316.07,92.79,315.18,92.72,315.17Zm-8-9.51-.46,0c.12.15.24.29.37.43a9.47,9.47,0,0,0,3.07,2.11A8.89,8.89,0,0,1,84.76,305.66Zm-9.38-16.38.44.09h0a18.82,18.82,0,0,1,9.79,5.46,19,19,0,0,0-9.72-5.78h0l-.44-.1a11.07,11.07,0,0,0-4.73-.12A31.35,31.35,0,0,1,75.38,289.28Zm6.93,14.9a8.33,8.33,0,0,0,.73,1.28c1,0,1.85-.09,2.56-.14a2.75,2.75,0,0,1-.21-1c-.79-.05-1.74-.11-2.87-.15Zm4.15,1.07a12.85,12.85,0,0,0,2.79-.42h0a14.16,14.16,0,0,0-2.93-.43A1.84,1.84,0,0,0,86.46,305.25Zm-4.82.26a4.61,4.61,0,0,1-.72-1.35c-4.94,0-9.53.87-19.17.11,0,0-8.69.47-34.9.56h0c26.21.09,34.9.57,34.9.57C71.85,304.6,76.41,305.58,81.64,305.51Z"/><path class="a8e816f4-6b76-4056-8a14-7ee091a960a0" d="M112.91,308.4a8.17,8.17,0,0,0,5.3-3.16h0l.12-.22c.74-1.35.51-2.64.32-2.6s-.27,1.12-.91,2.28l-.11.2h0A7.86,7.86,0,0,1,112.91,308.4Zm13.62,10.18h0l-.3-.07h0l-.09,0a2.7,2.7,0,0,1-.41.05,4.71,4.71,0,0,1-1.7-.25c-2.27-.65-4.07-2.49-5.48-4.43-.12-.13-.13-.23-.32-.39l-.36-.29-.71-.59-1.4-1.19c-.93-.8-1.84-1.62-2.73-2.47.85.89,1.72,1.75,2.62,2.6.44.42.89.84,1.35,1.25l.68.62.34.31a1.76,1.76,0,0,1,.25.34,11.48,11.48,0,0,0,5.57,4.89,5,5,0,0,0,1.93.19,2.67,2.67,0,0,0,.48-.08l.13.13c.23.21.47.41.71.61a21.32,21.32,0,0,0,3.08,2.08,32.6,32.6,0,0,0,6.79,2.86,32.68,32.68,0,0,1-6.62-3.15,21.53,21.53,0,0,1-2.92-2.18c-.23-.2-.45-.41-.66-.62l-.16-.16,0,0,0,0Zm-10.1-16.23a2.4,2.4,0,0,1,0,.28h0a5.75,5.75,0,0,1-.27,1.31h.58a7.17,7.17,0,0,0,.35-1.2h0a2.91,2.91,0,0,0,0-.31c.19-1.79-.5-3.14-.67-3.05S116.61,300.74,116.43,302.35Zm-1.66-6.79c-.63,0-1.32-.09-2.11-.19,0,0-.87.15-2.94.79a15.17,15.17,0,0,0-3.86,1.8,9.05,9.05,0,0,0-3.75,5.09h0A8.29,8.29,0,0,1,106,298.2a12,12,0,0,1,3.88-1.33,12.8,12.8,0,0,1,2.9-.2,10.42,10.42,0,0,1,1.07-.31C114.17,296.08,114.47,295.81,114.77,295.56Zm3-.08a10.22,10.22,0,0,0-1.25.73,9.57,9.57,0,0,1,1,.15,18.6,18.6,0,0,0,3.2.63c2.15.07,2.68-.29,2.69-.3h0s-.32-.64-2.48-1.2A9.3,9.3,0,0,0,117.73,295.48Zm-8.12,5.74a5.12,5.12,0,0,0,1.24-.5,5.66,5.66,0,0,1,1.47.8,4.36,4.36,0,0,1,1.6,2.35,3,3,0,0,1-.93,2.6,8.33,8.33,0,0,1-1.5,1.27l.21.23a8.07,8.07,0,0,0,1.54-1.27,3.38,3.38,0,0,0,1.05-2.89,4.65,4.65,0,0,0-1.71-2.61,6,6,0,0,0-1.26-.76,5.8,5.8,0,0,0,1-.83c.75-.73,1.38-1.53,2.08-2.23h0a12.59,12.59,0,0,1,1.39-1.23,15.81,15.81,0,0,1,7.11-2.64,13.12,13.12,0,0,1,6.18.56,12.61,12.61,0,0,1,4.81,3.17,3.69,3.69,0,0,0-1-1.26,10.69,10.69,0,0,0-3.67-2.35,13.24,13.24,0,0,0-6.42-.73,15.92,15.92,0,0,0-7.44,2.72,13,13,0,0,0-1.47,1.29h0a17.26,17.26,0,0,1-3.31,3.26,9.07,9.07,0,0,0-4-.24,6.66,6.66,0,0,0-.77.19,1.56,1.56,0,0,0-.79.46.42.42,0,0,0,0,.45.71.71,0,0,0,.26.22,2,2,0,0,0,.42.13,5.64,5.64,0,0,0,.8.1A10.57,10.57,0,0,0,109.61,301.22Zm.4-.75a2.62,2.62,0,0,1-.56.18,9.87,9.87,0,0,1-2.93.29,4.06,4.06,0,0,1-.71-.08.84.84,0,0,1-.24-.06,3.57,3.57,0,0,1,1.13-.38A8.78,8.78,0,0,1,110,300.47Zm-5.55,14.22a9.4,9.4,0,0,0,.53,6,18.47,18.47,0,0,0,3.29,5.11,18.06,18.06,0,0,1-3.21-5.14,9.3,9.3,0,0,1-.45-5.93,8.91,8.91,0,0,1,3.46-4.81c.73-.42,1.53-.79,2.31-1.21l-.16-.22a22.31,22.31,0,0,0-2.3,1.23A9.1,9.1,0,0,0,104.46,314.69Zm-3.74-4.35.2,10.19.24-10.19c0-1.69,0-3.42.15-5.07a12.43,12.43,0,0,1,1.33-4.73h0c.12-.22.23-.45.37-.66a11.45,11.45,0,0,1,4.06-4c1.28-.76,2.18-1,2.15-1.16s-1,0-2.44.61a10.28,10.28,0,0,0-4.52,4.05c-.15.24-.27.49-.41.73h0a13.26,13.26,0,0,0-1.2,5.08C100.61,307,100.7,308.63,100.72,310.34Zm37-16.7c.13-.15-2.38-2.05-6.08-2.89l-.63-.14h0a18.83,18.83,0,0,0-8.15.3,20.74,20.74,0,0,0-7.24,3.63,20.44,20.44,0,0,1,7.32-3.3,18.18,18.18,0,0,1,7.94,0h0l.61.13A44.52,44.52,0,0,1,137.69,293.64Zm-35.47,11.87a5.81,5.81,0,0,0-.57,3.24c0,1.15,0,2.36,0,3.61v0h0c0-1.25,0-2.46,0-3.61a5.57,5.57,0,0,1,.65-3.15,3.25,3.25,0,0,1,4.74-1.15,11.5,11.5,0,0,1,3,3.36c.81,1.11,1.53,2.08,2.16,2.92,2.16,2.81,3.27,4.19,3.56,4.56l.08.1c1.27.89,2.37,1.72,3.33,2.48a23,23,0,0,1,4.5,5c6.47,4.53,16.36,3.05,16.36,3.05-6.84-.56-14.42-6-14.42-6-2.92,0-5.41-2.26-6.88-4a20.61,20.61,0,0,1-1.44-1.93,40.34,40.34,0,0,1-4.22-4c-.72-.76-1.53-1.64-2.42-2.68a12.74,12.74,0,0,0-3.38-3.26,3.9,3.9,0,0,0-2.77-.44A3.65,3.65,0,0,0,102.22,305.51Zm6.17,11.54a3.22,3.22,0,0,0,2.29.86,3,3,0,0,0,2.59-1.55,3.19,3.19,0,0,0,.29-.72h0a2.84,2.84,0,0,0-.45-2.35,4.49,4.49,0,0,0-4.16-1.62,4.09,4.09,0,0,0-2,1.09c-2.2,2.2-2.29,5.71-1.07,8.33a8.45,8.45,0,0,1-.58-4.3,6.18,6.18,0,0,1,1.87-3.79,3.75,3.75,0,0,1,5.47.62,2.21,2.21,0,0,1,.29,1.85h0a3,3,0,0,1-.23.56,2.48,2.48,0,0,1-2,1.26,2.84,2.84,0,0,1-2-.6c-1-.78-1.31-1.58-1.41-1.52S107.37,316.07,108.39,317.05Zm3.87-8.83a9.47,9.47,0,0,0,3.07-2.11c.13-.14.25-.28.37-.43l-.46,0A8.89,8.89,0,0,1,112.26,308.22Zm17-19.39a11.07,11.07,0,0,0-4.73.12l-.44.1h0a19,19,0,0,0-9.72,5.78,18.82,18.82,0,0,1,9.79-5.46h0l.44-.09A31.35,31.35,0,0,1,129.28,288.83Zm-11.8,15.35c-1.13,0-2.08.1-2.87.15a2.75,2.75,0,0,1-.21,1c.71.05,1.56.1,2.56.14a8.33,8.33,0,0,0,.73-1.28Zm-3.8.22a14.16,14.16,0,0,0-2.93.43h0a12.85,12.85,0,0,0,2.79.42A1.84,1.84,0,0,0,113.68,304.4Zm24.57,1s8.69-.48,34.9-.57h0c-26.21-.09-34.9-.56-34.9-.56-9.64.76-14.23-.09-19.17-.11a4.61,4.61,0,0,1-.72,1.35C123.59,305.58,128.15,304.6,138.25,305.4Z"/><rect class="e4c1e703-84cc-417d-b0e5-748486b74af3" x="7.5" y="10" width="185" height="320" rx="8"/></g></svg>